<?xml version="1.0" encoding="UTF-8"?> <svg xmlns="http://www.w3.org/2000/svg" id="Layer_1" data-name="Layer 1" viewBox="0 0 1069.11 511.25"><defs><style>.cls-1{fill:#04090e;}.cls-2{fill:#e1001a;}</style></defs><path class="cls-1" d="M0,135.5H59.51q32,0,49.28,10t17.31,33.9q0,23.49-17.1,33.7T59.51,223.34H34.41v53.84H0Zm59.71,75.09q16.18,0,24.19-6.68t8-24.49q0-17.61-7.89-24.49t-24.29-6.88H34.41v62.54Z"></path><path class="cls-1" d="M270.72,267.06q3.73,7.5,7,7.29v2.83H244.1a42.36,42.36,0,0,1-7-10.32,148.92,148.92,0,0,1-6.58-15.79A138.72,138.72,0,0,0,221,230.22a23.6,23.6,0,0,0-11.54-10.32h-33v57.28H142.29V135.5h64.16q31.78,0,49.09,9.51t17.3,32.39q0,31-33.39,39.06a43.24,43.24,0,0,1,12,11.23,87.91,87.91,0,0,1,9.82,18.12Q267,259.58,270.72,267.06ZM176.5,207.35h30.16q15.38,0,23.78-6.27t8.4-23.68q0-17-8.4-23.18t-23.78-6.17H176.5Z"></path><path class="cls-1" d="M291.87,135.5h131v12.55H326.28v47h85.41v12.55H326.28v57.07h96.55v12.55h-131Z"></path><path class="cls-1" d="M444.85,268.1q-20.25-13-21.3-36.51h28.33q1,19.31,12.69,27.91t34.31,8.6q18.67,0,27.49-6.51t8.81-19.3a22.09,22.09,0,0,0-3.15-12q-3.13-5-12.27-9.23T493,213.54q-27.7-5.44-46.69-15.53t-19-29.58q0-38.19,69.45-38.19,34,0,51.31,11.22t19,29.9H539.17q-2.94-15.31-13.85-21.71t-29.8-6.4q-16.57,0-24.65,5.66t-8.08,14.48a13.92,13.92,0,0,0,2.83,8.6q2.83,3.78,11.54,7.45t25.5,7.45q23.7,5.25,37.56,10.49t22.24,15q8.38,9.75,8.39,25.91a32.83,32.83,0,0,1-8.91,23.08Q553,271,536.86,276.07t-37.56,5Q465.1,281.11,444.85,268.1Z"></path><path class="cls-1" d="M626.09,148.83H567.4V136.28H719v12.55H660.3V278H626.09Z"></path><path class="cls-1" d="M731,136.28h34.41V278H731Z"></path><path class="cls-1" d="M814.49,271.19q-18.93-8.81-29.14-25.2t-10.23-38.66q0-22.26,10.23-38.66t29.24-25.3q19-8.91,44.94-8.91,20.24,0,35.82,5.87t25.1,16.7A47.92,47.92,0,0,1,932,182.84H905.07q-3.45-17.42-15.08-26.62T860.13,147q-23.67,0-36.93,15.79t-13.26,44.33q0,28.34,13,44.32t36.13,16a71.72,71.72,0,0,0,18.22-2.12,74.38,74.38,0,0,0,17.41-7.39V214.62H846.17V202.88H929v55.25q-10.73,10.13-29.65,16A135.4,135.4,0,0,1,858.92,280Q833.42,280,814.49,271.19Z"></path><path class="cls-1" d="M938.15,136.28h131v12.55H972.56v47H1058v12.55H972.56v57.08h96.55V278h-131Z"></path><path class="cls-1" d="M36.48,333.82a.81.81,0,0,1,.23.57v5.15a.77.77,0,0,1-.23.56.78.78,0,0,1-.57.24H23.62c-.23,0-.34.11-.34.33v38.88a.73.73,0,0,1-.23.56.78.78,0,0,1-.57.24H16.34a.82.82,0,0,1-.81-.8V340.67a.29.29,0,0,0-.33-.33H3.38a.76.76,0,0,1-.57-.24.73.73,0,0,1-.23-.56v-5.15a.77.77,0,0,1,.23-.57.79.79,0,0,1,.57-.23H35.91A.81.81,0,0,1,36.48,333.82Z"></path><path class="cls-1" d="M122.61,379.75l-8.81-19.24a.44.44,0,0,0-.41-.27h-8a.3.3,0,0,0-.34.34v19a.73.73,0,0,1-.23.56.76.76,0,0,1-.57.24H98.1a.75.75,0,0,1-.57-.24.73.73,0,0,1-.23-.56V334.39a.79.79,0,0,1,.8-.8h18.37a14.94,14.94,0,0,1,7.21,1.7,12.15,12.15,0,0,1,4.88,4.81,14.43,14.43,0,0,1,1.73,7.12,12.94,12.94,0,0,1-2.37,7.85,12.2,12.2,0,0,1-6.58,4.5.22.22,0,0,0-.2.14.32.32,0,0,0,0,.27l9.42,19.43a1,1,0,0,1,.13.4c0,.36-.24.54-.73.54h-6.41A1,1,0,0,1,122.61,379.75ZM105,340.6v13.3a.3.3,0,0,0,.34.33h10a7.1,7.1,0,0,0,5.17-1.9,6.68,6.68,0,0,0,2-5.05,6.77,6.77,0,0,0-2-5.07,7,7,0,0,0-5.17-1.94h-10A.3.3,0,0,0,105,340.6Z"></path><path class="cls-1" d="M221.34,379.68l-2.21-7.15c-.09-.17-.2-.26-.33-.26H201.17c-.14,0-.25.09-.34.26l-2.2,7.15a.85.85,0,0,1-.87.67h-6.68a.73.73,0,0,1-.6-.24.7.7,0,0,1-.07-.7l14.5-45.15a.83.83,0,0,1,.86-.67h8.35a.83.83,0,0,1,.87.67l14.57,45.15a.83.83,0,0,1,.06.34c0,.4-.24.6-.73.6h-6.68A.83.83,0,0,1,221.34,379.68Zm-18.17-13.49h13.56c.27,0,.35-.14.27-.4l-6.88-22.38c-.05-.18-.12-.27-.2-.27s-.16.09-.2.27l-6.82,22.38C202.86,366.05,203,366.19,203.17,366.19Z"></path><path class="cls-1" d="M295.55,378.91a14.17,14.17,0,0,1-5.88-5.51,16,16,0,0,1-2.07-8.21v-16.5a16,16,0,0,1,2.07-8.22,14,14,0,0,1,5.88-5.48,19.22,19.22,0,0,1,8.82-1.93,19.58,19.58,0,0,1,8.75,1.87A13.77,13.77,0,0,1,319,340.2a14.89,14.89,0,0,1,2.07,7.89.77.77,0,0,1-.23.56.78.78,0,0,1-.57.24l-6.15.33c-.53,0-.8-.24-.8-.73a8.5,8.5,0,0,0-2.44-6.35,8.89,8.89,0,0,0-6.51-2.4,9,9,0,0,0-6.55,2.4,8.44,8.44,0,0,0-2.47,6.35v17a8.36,8.36,0,0,0,2.47,6.28,10.13,10.13,0,0,0,13.06,0,8.38,8.38,0,0,0,2.44-6.31c0-.49.27-.74.8-.74l6.15.27a.88.88,0,0,1,.57.2.63.63,0,0,1,.23.47,15.16,15.16,0,0,1-2.07,8,13.67,13.67,0,0,1-5.88,5.31,19.58,19.58,0,0,1-8.75,1.87A18.86,18.86,0,0,1,295.55,378.91Z"></path><path class="cls-1" d="M413.55,333.82a.77.77,0,0,1,.23.57v5.15a.73.73,0,0,1-.23.56.76.76,0,0,1-.57.24H400.69a.29.29,0,0,0-.33.33v38.88a.82.82,0,0,1-.8.8h-6.15a.78.78,0,0,1-.57-.24.77.77,0,0,1-.23-.56V340.67a.29.29,0,0,0-.33-.33H380.45a.78.78,0,0,1-.57-.24.77.77,0,0,1-.23-.56v-5.15a.79.79,0,0,1,.8-.8H413A.79.79,0,0,1,413.55,333.82Z"></path><path class="cls-1" d="M479,379a14.37,14.37,0,0,1-6-5.78,17.28,17.28,0,0,1-2.1-8.62V349.35a16.78,16.78,0,0,1,2.13-8.51,14.79,14.79,0,0,1,6-5.75,20.46,20.46,0,0,1,17.77,0,14.79,14.79,0,0,1,6,5.75,16.78,16.78,0,0,1,2.14,8.51v15.23a17.09,17.09,0,0,1-2.14,8.62,14.67,14.67,0,0,1-6,5.78,20.43,20.43,0,0,1-17.8,0Zm15.63-7.25a9.45,9.45,0,0,0,2.54-6.88V349.29a9.54,9.54,0,0,0-2.54-7,10,10,0,0,0-13.43,0,9.54,9.54,0,0,0-2.53,7v15.56a9.45,9.45,0,0,0,2.53,6.88,9.94,9.94,0,0,0,13.43,0Z"></path><path class="cls-1" d="M592.27,379.75l-8.82-19.24a.43.43,0,0,0-.4-.27h-8c-.22,0-.33.11-.33.34v19a.77.77,0,0,1-.23.56.78.78,0,0,1-.57.24h-6.15a.78.78,0,0,1-.57-.24.77.77,0,0,1-.23-.56V334.39a.79.79,0,0,1,.8-.8h18.37a15,15,0,0,1,7.22,1.7,12.12,12.12,0,0,1,4.87,4.81,14.33,14.33,0,0,1,1.74,7.12,12.94,12.94,0,0,1-2.37,7.85,12.24,12.24,0,0,1-6.58,4.5.21.21,0,0,0-.2.14.26.26,0,0,0,0,.27l9.42,19.43a1,1,0,0,1,.13.4c0,.36-.24.54-.73.54H593.2A1,1,0,0,1,592.27,379.75ZM574.7,340.6v13.3a.29.29,0,0,0,.33.33h10a7.13,7.13,0,0,0,5.18-1.9,6.71,6.71,0,0,0,2-5.05,6.8,6.8,0,0,0-2-5.07,7.07,7.07,0,0,0-5.18-1.94H575A.29.29,0,0,0,574.7,340.6Z"></path><path class="cls-1" d="M667.35,379.21a13.63,13.63,0,0,1-6-4.67,12.08,12.08,0,0,1-2.1-7.08v-1.67a.79.79,0,0,1,.8-.8H666a.77.77,0,0,1,.57.23.75.75,0,0,1,.23.57v1.27a6.18,6.18,0,0,0,2.74,5.11,12.34,12.34,0,0,0,7.48,2q4.08,0,6.15-1.73a5.58,5.58,0,0,0,2.07-4.48,4.64,4.64,0,0,0-1.14-3.17,10.45,10.45,0,0,0-3.23-2.37,68.37,68.37,0,0,0-6.32-2.68,64,64,0,0,1-7.68-3.27,14.23,14.23,0,0,1-4.91-4.17,10.71,10.71,0,0,1-2-6.58,11.22,11.22,0,0,1,4.28-9.29q4.26-3.4,11.42-3.4a21.4,21.4,0,0,1,8.85,1.73,14.11,14.11,0,0,1,6,4.85,12.38,12.38,0,0,1,2.13,7.18V348a.75.75,0,0,1-.23.57.77.77,0,0,1-.57.23h-6a.77.77,0,0,1-.57-.23.79.79,0,0,1-.23-.57v-.73a6.69,6.69,0,0,0-2.57-5.31,10.7,10.7,0,0,0-7.12-2.17,9.34,9.34,0,0,0-5.71,1.53,5.11,5.11,0,0,0-2,4.34,4.94,4.94,0,0,0,1.06,3.28,9.73,9.73,0,0,0,3.21,2.3c1.42.69,3.63,1.57,6.61,2.64a75.86,75.86,0,0,1,7.59,3.27,14.61,14.61,0,0,1,4.87,4.11,10.43,10.43,0,0,1,2,6.58,11.57,11.57,0,0,1-4.44,9.55q-4.44,3.54-12.13,3.54A22.68,22.68,0,0,1,667.35,379.21Z"></path><polygon class="cls-2" points="23.91 71.77 23.91 23.91 300.45 23.91 300.45 71.77 324.36 71.77 324.36 0 0 0 0 71.77 23.91 71.77"></polygon><path class="cls-2" d="M275.05,422.43A928.6,928.6,0,0,1,161.27,485,930.79,930.79,0,0,1,47.5,422.43H4.62c65.63,45.72,123.86,74.15,151.77,86.64l4.88,2.18,4.88-2.18c27.92-12.49,86.15-40.92,151.78-86.64Z"></path></svg> 